<?xml version="1.0" encoding="UTF-8" standalone="no"?>
<!-- Created with Inkscape (http://www.inkscape.org/) -->

<svg
   width="1000"
   height="1000"
   viewBox="0 0 1000 1000"
   version="1.1"
   id="svg1"
   inkscape:version="1.3 (0e150ed6c4, 2023-07-21)"
   xml:space="preserve"
   sodipodi:docname="logo.svg"
   inkscape:export-filename="logo.png"
   inkscape:export-xdpi="96"
   inkscape:export-ydpi="96"
   xmlns:inkscape="http://www.inkscape.org/namespaces/inkscape"
   xmlns:sodipodi="http://sodipodi.sourceforge.net/DTD/sodipodi-0.dtd"
   xmlns="http://www.w3.org/2000/svg"
   xmlns:svg="http://www.w3.org/2000/svg"><sodipodi:namedview
     id="namedview1"
     pagecolor="#505050"
     bordercolor="#ffffff"
     borderopacity="1"
     inkscape:showpageshadow="0"
     inkscape:pageopacity="0"
     inkscape:pagecheckerboard="1"
     inkscape:deskcolor="#d1d1d1"
     inkscape:document-units="px"
     inkscape:zoom="0.48295393"
     inkscape:cx="554.91835"
     inkscape:cy="545.6007"
     inkscape:window-width="2560"
     inkscape:window-height="1377"
     inkscape:window-x="5112"
     inkscape:window-y="-8"
     inkscape:window-maximized="1"
     inkscape:current-layer="layer1" /><defs
     id="defs1" /><g
     inkscape:label="Layer 1"
     inkscape:groupmode="layer"
     id="layer1"
     style="fill:#ffffff;fill-opacity:1;stroke:#000000;stroke-width:20;stroke-dasharray:none;stroke-opacity:0.5;paint-order:normal"
     transform="translate(42.182745,28.39993)"><text
       xml:space="preserve"
       style="font-size:647.539px;line-height:1em;font-family:ECKO;-inkscape-font-specification:'ECKO, Normal';text-decoration-color:#000000;letter-spacing:6.47539px;word-spacing:12.9508px;opacity:1;fill:#ffffff;fill-opacity:1;stroke:#000000;stroke-width:20;stroke-linecap:round;stroke-miterlimit:2000;stroke-dasharray:none;stroke-opacity:0.5;paint-order:normal"
       x="147.09094"
       y="589.68414"
       id="text4"><tspan
         sodipodi:role="line"
         id="tspan4"
         x="147.09094"
         y="589.68414"
         style="fill:#ffffff;fill-opacity:1;stroke:#000000;stroke-width:20;stroke-dasharray:none;stroke-opacity:0.5;paint-order:normal">PG</tspan></text><g
       style="fill:#ffffff;fill-opacity:1;stroke:#000000;stroke-width:0.479324;stroke-dasharray:none;stroke-opacity:0.5;paint-order:normal"
       id="g4"
       transform="matrix(40.303694,-10.799342,10.799342,40.303694,-64.401799,213.04678)"><path
         fill-rule="evenodd"
         clip-rule="evenodd"
         d="M 7.5,0 C 7.77614,0 8,0.223858 8,0.5 V 1.80687 C 10.6922,2.0935 12.8167,4.28012 13.0068,7 H 14.5 C 14.7761,7 15,7.22386 15,7.5 15,7.77614 14.7761,8 14.5,8 H 12.9888 C 12.7094,10.6244 10.6244,12.7094 8,12.9888 V 14.5 C 8,14.7761 7.77614,15 7.5,15 7.22386,15 7,14.7761 7,14.5 V 13.0068 C 4.28012,12.8167 2.0935,10.6922 1.80687,8 H 0.5 C 0.223858,8 0,7.77614 0,7.5 0,7.22386 0.223858,7 0.5,7 H 1.78886 C 1.98376,4.21166 4.21166,1.98376 7,1.78886 V 0.5 C 7,0.223858 7.22386,0 7.5,0 Z M 8,12.0322 V 9.5 C 8,9.22386 7.77614,9 7.5,9 7.22386,9 7,9.22386 7,9.5 v 2.554 C 4.80517,11.8689 3.04222,10.1668 2.76344,8 H 5.5 C 5.77614,8 6,7.77614 6,7.5 6,7.22386 5.77614,7 5.5,7 H 2.7417 C 2.93252,4.73662 4.73662,2.93252 7,2.7417 V 5.5 C 7,5.77614 7.22386,6 7.5,6 7.77614,6 8,5.77614 8,5.5 V 2.76344 C 10.1668,3.04222 11.8689,4.80517 12.054,7 H 9.5 C 9.22386,7 9,7.22386 9,7.5 9,7.77614 9.22386,8 9.5,8 h 2.5322 C 11.7621,10.0991 10.0991,11.7621 8,12.0322 Z"
         fill="#000000"
         id="path1"
         style="fill:#ffffff;fill-opacity:1;stroke:#000000;stroke-width:0.479324;stroke-dasharray:none;stroke-opacity:0.5;paint-order:normal" /></g></g></svg>
